<svg xmlns="http://www.w3.org/2000/svg" viewBox="0 0 64 64" fill="none">
  <defs>
    <linearGradient id="grad" x1="0%" y1="0%" x2="100%" y2="100%">
      <stop offset="0%" style="stop-color:#F59E0B"/>
      <stop offset="100%" style="stop-color:#8B5CF6"/>
    </linearGradient>
  </defs>
  <!-- Background circle -->
  <circle cx="32" cy="32" r="30" fill="url(#grad)"/>
  <!-- Ear icon stylized -->
  <path d="M32 12c-8.8 0-16 7.2-16 20s7.2 20 16 20c2.2 0 4-1.8 4-4s-1.8-4-4-4c-4.4 0-8-5.4-8-12s3.6-12 8-12c6.6 0 12 5.4 12 12 0 2.2 1.8 4 4 4s4-1.8 4-4c0-11-9-20-20-20z" fill="white" opacity="0.95"/>
  <!-- Signal waves -->
  <path d="M44 24c2.2 0 4 1.8 4 4v8c0 2.2-1.8 4-4 4" stroke="white" stroke-width="2.5" fill="none" stroke-linecap="round" opacity="0.7"/>
  <path d="M48 20c3.3 0 6 2.7 6 6v12c0 3.3-2.7 6-6 6" stroke="white" stroke-width="2" fill="none" stroke-linecap="round" opacity="0.5"/>
</svg>
